<?xml version="1.0" encoding="UTF-8" standalone="no"?><svg xmlns="http://www.w3.org/2000/svg" xmlns:xlink="http://www.w3.org/1999/xlink" contentScriptType="application/ecmascript" contentStyleType="text/css" height="286px" preserveAspectRatio="none" style="width:503px;height:286px;" version="1.1" viewBox="0 0 503 286" width="503px" zoomAndPan="magnify"><defs><filter height="300%" id="fv3xtaj4n6mv" width="300%" x="-1" y="-1"><feGaussianBlur result="blurOut" stdDeviation="2.0"/><feColorMatrix in="blurOut" result="blurOut2" type="matrix" values="0 0 0 0 0 0 0 0 0 0 0 0 0 0 0 0 0 0 .4 0"/><feOffset dx="4.0" dy="4.0" in="blurOut2" result="blurOut3"/><feBlend in="SourceGraphic" in2="blurOut3" mode="normal"/></filter></defs><g><rect fill="#CCCCCC" filter="url(#fv3xtaj4n6mv)" height="259" style="stroke: #000000; stroke-width: 1.5;" width="478" x="14" y="16"/><path d="M101,17 L101,25.2969 L91,35.2969 L14,35.2969 " fill="none" style="stroke: #000000; stroke-width: 1.5;"/><text fill="#000000" font-family="sans-serif" font-size="14" font-weight="bold" lengthAdjust="spacingAndGlyphs" textLength="77" x="17" y="29.9951">shared.all</text><rect fill="#EEEEEE" filter="url(#fv3xtaj4n6mv)" height="166" style="stroke: #000000; stroke-width: 1.5;" width="462" x="22" y="101"/><path d="M128,102 L128,110.2969 L118,120.2969 L22,120.2969 " fill="none" style="stroke: #000000; stroke-width: 1.5;"/><text fill="#000000" font-family="sans-serif" font-size="14" font-weight="bold" lengthAdjust="spacingAndGlyphs" textLength="96" x="25" y="114.9951">user.shared</text><path d="M325,43 L325,68.1328 L411,68.1328 L411,53 L401,43 L325,43 " fill="#FBFB77" filter="url(#fv3xtaj4n6mv)" style="stroke: #A80036; stroke-width: 1.0;"/><path d="M401,43 L401,53 L411,53 L401,43 " fill="#FBFB77" style="stroke: #A80036; stroke-width: 1.0;"/><text fill="#000000" font-family="sans-serif" font-size="13" lengthAdjust="spacingAndGlyphs" textLength="65" x="331" y="60.0669">业务父模块</text><path d="M186.5,128 L186.5,153.1328 L259.5,153.1328 L259.5,138 L249.5,128 L186.5,128 " fill="#FBFB77" filter="url(#fv3xtaj4n6mv)" style="stroke: #A80036; stroke-width: 1.0;"/><path d="M249.5,128 L249.5,138 L259.5,138 L249.5,128 " fill="#FBFB77" style="stroke: #A80036; stroke-width: 1.0;"/><text fill="#000000" font-family="sans-serif" font-size="13" lengthAdjust="spacingAndGlyphs" textLength="52" x="192.5" y="145.0669">业务模块</text><rect fill="#FFFF00" filter="url(#fv3xtaj4n6mv)" height="46.2969" style="stroke: #000000; stroke-width: 1.5;" width="95" x="30.5" y="213"/><path d="M62.1667,214 L62.1667,218 L55.1667,225 L30.5,225 " fill="none" style="stroke: #000000; stroke-width: 1.5;"/><text fill="#000000" font-family="sans-serif" font-size="14" lengthAdjust="spacingAndGlyphs" textLength="55" x="45.5" y="245.9951">user.api</text><rect fill="#FFFF00" filter="url(#fv3xtaj4n6mv)" height="46.2969" style="stroke: #000000; stroke-width: 1.5;" width="124" x="161" y="213"/><path d="M202.3333,214 L202.3333,218 L195.3333,225 L161,225 " fill="none" style="stroke: #000000; stroke-width: 1.5;"/><text fill="#000000" font-family="sans-serif" font-size="14" lengthAdjust="spacingAndGlyphs" textLength="84" x="176" y="245.9951">user.service</text><rect fill="#FFFF00" filter="url(#fv3xtaj4n6mv)" height="46.2969" style="stroke: #000000; stroke-width: 1.5;" width="156" x="320" y="213"/><path d="M372,214 L372,218 L365,225 L320,225 " fill="none" style="stroke: #000000; stroke-width: 1.5;"/><text fill="#000000" font-family="sans-serif" font-size="14" lengthAdjust="spacingAndGlyphs" textLength="116" x="335" y="245.9951">user.service.impl</text><path d="M203.7451,153.1817 C180.6341,168.4031 141.4351,194.2203 112.9358,212.9905 " fill="none" id="N2-user.api" style="stroke: #A80036; stroke-width: 1.0; stroke-dasharray: 7.0,7.0;"/><path d="M223,153.3796 C223,168.5516 223,194.051 223,212.7163 " fill="none" id="N2-user.service" style="stroke: #A80036; stroke-width: 1.0; stroke-dasharray: 7.0,7.0;"/><path d="M246.2386,153.1817 C274.1313,168.4031 321.4404,194.2203 355.8361,212.9905 " fill="none" id="N2-user.service.impl" style="stroke: #A80036; stroke-width: 1.0; stroke-dasharray: 7.0,7.0;"/><path d="M368,68.042 C368,73.5836 368,80.5078 368,87.8622 C368,91.5393 368,95.324 368,99.0972 C368,99.5688 368,100.0403 368,100.5113 C368,100.6291 368,100.7468 368,100.8645 " fill="none" id="N1-user.shared" style="stroke: #A80036; stroke-width: 1.0; stroke-dasharray: 7.0,7.0;"/></g></svg>