<?xml version="1.0" encoding="UTF-8" standalone="no"?><svg xmlns="http://www.w3.org/2000/svg" xmlns:xlink="http://www.w3.org/1999/xlink" contentScriptType="application/ecmascript" contentStyleType="text/css" height="339px" preserveAspectRatio="none" style="width:393px;height:339px;" version="1.1" viewBox="0 0 393 339" width="393px" zoomAndPan="magnify"><defs><filter height="300%" id="fygix8pi5hyv2" width="300%" x="-1" y="-1"><feGaussianBlur result="blurOut" stdDeviation="2.0"/><feColorMatrix in="blurOut" result="blurOut2" type="matrix" values="0 0 0 0 0 0 0 0 0 0 0 0 0 0 0 0 0 0 .4 0"/><feOffset dx="4.0" dy="4.0" in="blurOut2" result="blurOut3"/><feBlend in="SourceGraphic" in2="blurOut3" mode="normal"/></filter></defs><g><polygon fill="#FFFFFF" filter="url(#fygix8pi5hyv2)" points="14,16,86,16,93,38.2969,371,38.2969,371,327,14,327,14,16" style="stroke: #000000; stroke-width: 1.5;"/><line style="stroke: #000000; stroke-width: 1.5;" x1="14" x2="93" y1="38.2969" y2="38.2969"/><text fill="#000000" font-family="sans-serif" font-size="14" font-weight="bold" lengthAdjust="spacingAndGlyphs" textLength="66" x="18" y="30.9951">dewu.all</text><rect fill="#CCCCCC" filter="url(#fygix8pi5hyv2)" height="222" style="stroke: #000000; stroke-width: 1.5;" width="341" x="22" y="97"/><path d="M109,98 L109,106.2969 L99,116.2969 L22,116.2969 " fill="none" style="stroke: #000000; stroke-width: 1.5;"/><text fill="#000000" font-family="sans-serif" font-size="14" font-weight="bold" lengthAdjust="spacingAndGlyphs" textLength="77" x="25" y="110.9951">shared.all</text><rect fill="#EEEEEE" filter="url(#fygix8pi5hyv2)" height="187" style="stroke: #000000; stroke-width: 1.5;" width="231" x="30" y="124"/><path d="M162,125 L162,133.2969 L152,143.2969 L30,143.2969 " fill="none" style="stroke: #000000; stroke-width: 1.5;"/><text fill="#000000" font-family="sans-serif" font-size="14" font-weight="bold" lengthAdjust="spacingAndGlyphs" textLength="122" x="33" y="137.9951">product.shared</text><rect fill="#FFFF00" filter="url(#fygix8pi5hyv2)" height="46.2969" style="stroke: #000000; stroke-width: 1.5;" width="114" x="71" y="43"/><path d="M109,44 L109,48 L102,55 L71,55 " fill="none" style="stroke: #000000; stroke-width: 1.5;"/><text fill="#000000" font-family="sans-serif" font-size="14" lengthAdjust="spacingAndGlyphs" textLength="74" x="86" y="75.9951">application</text><path d="M269,267.5 L269,292.6328 L355,292.6328 L355,277.5 L345,267.5 L269,267.5 " fill="#FBFB77" filter="url(#fygix8pi5hyv2)" style="stroke: #A80036; stroke-width: 1.0;"/><path d="M345,267.5 L345,277.5 L355,277.5 L345,267.5 " fill="#FBFB77" style="stroke: #A80036; stroke-width: 1.0;"/><text fill="#000000" font-family="sans-serif" font-size="13" lengthAdjust="spacingAndGlyphs" textLength="65" x="275" y="284.5669">商品父模块</text><rect fill="#FFFF00" filter="url(#fygix8pi5hyv2)" height="46.2969" style="stroke: #000000; stroke-width: 1.5;" width="147" x="54.5" y="257"/><path d="M103.5,258 L103.5,262 L96.5,269 L54.5,269 " fill="none" style="stroke: #000000; stroke-width: 1.5;"/><text fill="#000000" font-family="sans-serif" font-size="14" lengthAdjust="spacingAndGlyphs" textLength="107" x="69.5" y="289.9951">product.service</text><rect fill="#FFFF00" filter="url(#fygix8pi5hyv2)" height="46.2969" style="stroke: #000000; stroke-width: 1.5;" width="179" x="38.5" y="151"/><path d="M98.1667,152 L98.1667,156 L91.1667,163 L38.5,163 " fill="none" style="stroke: #000000; stroke-width: 1.5;"/><text fill="#000000" font-family="sans-serif" font-size="14" lengthAdjust="spacingAndGlyphs" textLength="139" x="53.5" y="183.9951">product.service.impl</text><path d="M261.0011,188.3749 C264.8662,195.319 269.8087,204.1987 275.0901,213.6872 C285.6527,232.6642 297.5705,254.0759 304.9345,267.3061 " fill="none" id="product.shared-GMN8" style="stroke: #A80036; stroke-width: 1.0; stroke-dasharray: 7.0,7.0;"/><path d="M128,197.0004 C128,213.003 128,234.4461 128,251.528 " fill="none" id="product.service.impl-&gt;product.service" style="stroke: #A80036; stroke-width: 1.0; stroke-dasharray: 7.0,7.0;"/><polygon fill="#A80036" points="128,256.6784,132,247.6784,128,251.6784,124,247.6784,128,256.6784" style="stroke: #A80036; stroke-width: 1.0;"/><path d="M128,89.1687 C128,105.6826 128,127.9817 128,145.573 " fill="none" id="application-&gt;product.service.impl" style="stroke: #A80036; stroke-width: 1.0; stroke-dasharray: 7.0,7.0;"/><polygon fill="#A80036" points="128,150.8696,132,141.8696,128,145.8696,124,141.8696,128,150.8696" style="stroke: #A80036; stroke-width: 1.0;"/></g></svg>