<?xml version="1.0" encoding="UTF-8" standalone="no"?><svg xmlns="http://www.w3.org/2000/svg" xmlns:xlink="http://www.w3.org/1999/xlink" contentScriptType="application/ecmascript" contentStyleType="text/css" height="339px" preserveAspectRatio="none" style="width:546px;height:339px;" version="1.1" viewBox="0 0 546 339" width="546px" zoomAndPan="magnify"><defs><filter height="300%" id="f1q5judceoz4wd" width="300%" x="-1" y="-1"><feGaussianBlur result="blurOut" stdDeviation="2.0"/><feColorMatrix in="blurOut" result="blurOut2" type="matrix" values="0 0 0 0 0 0 0 0 0 0 0 0 0 0 0 0 0 0 .4 0"/><feOffset dx="4.0" dy="4.0" in="blurOut2" result="blurOut3"/><feBlend in="SourceGraphic" in2="blurOut3" mode="normal"/></filter></defs><g><polygon fill="#FFFFFF" filter="url(#f1q5judceoz4wd)" points="14,16,86,16,93,38.2969,524,38.2969,524,327,14,327,14,16" style="stroke: #000000; stroke-width: 1.5;"/><line style="stroke: #000000; stroke-width: 1.5;" x1="14" x2="93" y1="38.2969" y2="38.2969"/><text fill="#000000" font-family="sans-serif" font-size="14" font-weight="bold" lengthAdjust="spacingAndGlyphs" textLength="66" x="18" y="30.9951">dewu.all</text><rect fill="#CCCCCC" filter="url(#f1q5judceoz4wd)" height="222" style="stroke: #000000; stroke-width: 1.5;" width="494" x="22" y="97"/><path d="M109,98 L109,106.2969 L99,116.2969 L22,116.2969 " fill="none" style="stroke: #000000; stroke-width: 1.5;"/><text fill="#000000" font-family="sans-serif" font-size="14" font-weight="bold" lengthAdjust="spacingAndGlyphs" textLength="77" x="25" y="110.9951">shared.all</text><rect fill="#EEEEEE" filter="url(#f1q5judceoz4wd)" height="187" style="stroke: #000000; stroke-width: 1.5;" width="384" x="30" y="124"/><path d="M162,125 L162,133.2969 L152,143.2969 L30,143.2969 " fill="none" style="stroke: #000000; stroke-width: 1.5;"/><text fill="#000000" font-family="sans-serif" font-size="14" font-weight="bold" lengthAdjust="spacingAndGlyphs" textLength="122" x="33" y="137.9951">product.shared</text><rect fill="#FFFF00" filter="url(#f1q5judceoz4wd)" height="46.2969" style="stroke: #000000; stroke-width: 1.5;" width="114" x="132" y="43"/><path d="M170,44 L170,48 L163,55 L132,55 " fill="none" style="stroke: #000000; stroke-width: 1.5;"/><text fill="#000000" font-family="sans-serif" font-size="14" lengthAdjust="spacingAndGlyphs" textLength="74" x="147" y="75.9951">application</text><path d="M422,267.5 L422,292.6328 L508,292.6328 L508,277.5 L498,267.5 L422,267.5 " fill="#FBFB77" filter="url(#f1q5judceoz4wd)" style="stroke: #A80036; stroke-width: 1.0;"/><path d="M498,267.5 L498,277.5 L508,277.5 L498,267.5 " fill="#FBFB77" style="stroke: #A80036; stroke-width: 1.0;"/><text fill="#000000" font-family="sans-serif" font-size="13" lengthAdjust="spacingAndGlyphs" textLength="65" x="428" y="284.5669">商品父模块</text><rect fill="#FFFF00" filter="url(#f1q5judceoz4wd)" height="46.2969" style="stroke: #000000; stroke-width: 1.5;" width="147" x="122.5" y="257"/><path d="M171.5,258 L171.5,262 L164.5,269 L122.5,269 " fill="none" style="stroke: #000000; stroke-width: 1.5;"/><text fill="#000000" font-family="sans-serif" font-size="14" lengthAdjust="spacingAndGlyphs" textLength="107" x="137.5" y="289.9951">product.service</text><rect fill="#FFFF00" filter="url(#f1q5judceoz4wd)" height="46.2969" style="stroke: #000000; stroke-width: 1.5;" width="179" x="191.5" y="151"/><path d="M251.1667,152 L251.1667,156 L244.1667,163 L191.5,163 " fill="none" style="stroke: #000000; stroke-width: 1.5;"/><text fill="#000000" font-family="sans-serif" font-size="14" lengthAdjust="spacingAndGlyphs" textLength="139" x="206.5" y="183.9951">product.service.impl</text><rect fill="#FFFF00" filter="url(#f1q5judceoz4wd)" height="46.2969" style="stroke: #000000; stroke-width: 1.5;" width="118" x="38" y="151"/><path d="M77.3333,152 L77.3333,156 L70.3333,163 L38,163 " fill="none" style="stroke: #000000; stroke-width: 1.5;"/><text fill="#000000" font-family="sans-serif" font-size="14" lengthAdjust="spacingAndGlyphs" textLength="78" x="53" y="183.9951">product.api</text><path d="M414.0011,188.3749 C417.8662,195.319 422.8087,204.1987 428.0901,213.6872 C438.6527,232.6642 450.5705,254.0759 457.9345,267.3061 " fill="none" id="product.shared-GMN9" style="stroke: #A80036; stroke-width: 1.0; stroke-dasharray: 7.0,7.0;"/><path d="M118.4815,197.0004 C133.8138,213.4168 154.4936,235.5588 170.6377,252.8444 " fill="none" id="product.api-&gt;product.service" style="stroke: #A80036; stroke-width: 1.0; stroke-dasharray: 7.0,7.0;"/><polygon fill="#A80036" points="174.2185,256.6784,170.9987,247.3707,170.8057,253.0243,165.1521,252.8313,174.2185,256.6784" style="stroke: #A80036; stroke-width: 1.0;"/><path d="M262.5563,197.0004 C249.5028,213.2789 231.9349,235.1871 218.126,252.4076 " fill="none" id="product.service.impl-&gt;product.service" style="stroke: #A80036; stroke-width: 1.0; stroke-dasharray: 7.0,7.0;"/><polygon fill="#A80036" points="214.7013,256.6784,223.4523,252.1595,217.8293,252.7777,217.2111,247.1547,214.7013,256.6784" style="stroke: #A80036; stroke-width: 1.0;"/><path d="M208.7363,89.1687 C223.1675,106.1097 242.7851,129.139 257.9389,146.9282 " fill="none" id="application-&gt;product.service.impl" style="stroke: #A80036; stroke-width: 1.0; stroke-dasharray: 7.0,7.0;"/><polygon fill="#A80036" points="261.2963,150.8696,258.505,141.4246,258.0539,147.0634,252.4151,146.6123,261.2963,150.8696" style="stroke: #A80036; stroke-width: 1.0;"/><path d="M169.2637,89.1687 C154.8325,106.1097 135.2149,129.139 120.0611,146.9282 " fill="none" id="application-&gt;product.api" style="stroke: #A80036; stroke-width: 1.0; stroke-dasharray: 7.0,7.0;"/><polygon fill="#A80036" points="116.7037,150.8696,125.5849,146.6123,119.9461,147.0634,119.495,141.4246,116.7037,150.8696" style="stroke: #A80036; stroke-width: 1.0;"/></g></svg>