<?xml version="1.0" encoding="UTF-8" standalone="no"?><svg xmlns="http://www.w3.org/2000/svg" xmlns:xlink="http://www.w3.org/1999/xlink" contentScriptType="application/ecmascript" contentStyleType="text/css" height="322px" preserveAspectRatio="none" style="width:379px;height:322px;" version="1.1" viewBox="0 0 379 322" width="379px" zoomAndPan="magnify"><defs><filter height="300%" id="f5odkqwkpfp5z" width="300%" x="-1" y="-1"><feGaussianBlur result="blurOut" stdDeviation="2.0"/><feColorMatrix in="blurOut" result="blurOut2" type="matrix" values="0 0 0 0 0 0 0 0 0 0 0 0 0 0 0 0 0 0 .4 0"/><feOffset dx="4.0" dy="4.0" in="blurOut2" result="blurOut3"/><feBlend in="SourceGraphic" in2="blurOut3" mode="normal"/></filter></defs><g><polygon fill="#FFFFFF" filter="url(#f5odkqwkpfp5z)" points="14,16,86,16,93,38.2969,357,38.2969,357,310,14,310,14,16" style="stroke: #000000; stroke-width: 1.5;"/><line style="stroke: #000000; stroke-width: 1.5;" x1="14" x2="93" y1="38.2969" y2="38.2969"/><text fill="#000000" font-family="sans-serif" font-size="14" font-weight="bold" lengthAdjust="spacingAndGlyphs" textLength="66" x="18" y="30.9951">dewu.all</text><rect fill="#CCCCCC" filter="url(#f5odkqwkpfp5z)" height="259" style="stroke: #000000; stroke-width: 1.5;" width="205" x="144" y="43"/><path d="M231,44 L231,52.2969 L221,62.2969 L144,62.2969 " fill="none" style="stroke: #000000; stroke-width: 1.5;"/><text fill="#000000" font-family="sans-serif" font-size="14" font-weight="bold" lengthAdjust="spacingAndGlyphs" textLength="77" x="147" y="56.9951">shared.all</text><rect fill="#EEEEEE" filter="url(#f5odkqwkpfp5z)" height="166" style="stroke: #000000; stroke-width: 1.5;" width="189" x="152" y="128"/><path d="M284,129 L284,137.2969 L274,147.2969 L152,147.2969 " fill="none" style="stroke: #000000; stroke-width: 1.5;"/><text fill="#000000" font-family="sans-serif" font-size="14" font-weight="bold" lengthAdjust="spacingAndGlyphs" textLength="122" x="155" y="141.9951">product.shared</text><rect fill="#FFFF00" filter="url(#f5odkqwkpfp5z)" height="46.2969" style="stroke: #000000; stroke-width: 1.5;" width="114" x="22" y="240"/><path d="M60,241 L60,245 L53,252 L22,252 " fill="none" style="stroke: #000000; stroke-width: 1.5;"/><text fill="#000000" font-family="sans-serif" font-size="14" lengthAdjust="spacingAndGlyphs" textLength="74" x="37" y="272.9951">application</text><path d="M255,70 L255,95.1328 L341,95.1328 L341,80 L331,70 L255,70 " fill="#FBFB77" filter="url(#f5odkqwkpfp5z)" style="stroke: #A80036; stroke-width: 1.0;"/><path d="M331,70 L331,80 L341,80 L331,70 " fill="#FBFB77" style="stroke: #A80036; stroke-width: 1.0;"/><text fill="#000000" font-family="sans-serif" font-size="13" lengthAdjust="spacingAndGlyphs" textLength="65" x="261" y="87.0669">商品父模块</text><path d="M160,155 L160,180.1328 L298,180.1328 L298,165 L288,155 L160,155 " fill="#FBFB77" filter="url(#f5odkqwkpfp5z)" style="stroke: #A80036; stroke-width: 1.0;"/><path d="M288,155 L288,165 L298,165 L288,155 " fill="#FBFB77" style="stroke: #A80036; stroke-width: 1.0;"/><text fill="#000000" font-family="sans-serif" font-size="13" lengthAdjust="spacingAndGlyphs" textLength="117" x="166" y="172.0669">商品服务接口及模型</text><rect fill="#FFFF00" filter="url(#f5odkqwkpfp5z)" height="46.2969" style="stroke: #000000; stroke-width: 1.5;" width="147" x="171.5" y="240"/><path d="M220.5,241 L220.5,245 L213.5,252 L171.5,252 " fill="none" style="stroke: #000000; stroke-width: 1.5;"/><text fill="#000000" font-family="sans-serif" font-size="14" lengthAdjust="spacingAndGlyphs" textLength="107" x="186.5" y="272.9951">product.service</text><path d="M231.1578,180.3796 C233.6997,195.5516 237.9719,221.051 241.0991,239.7163 " fill="none" id="N2-product.service" style="stroke: #A80036; stroke-width: 1.0; stroke-dasharray: 7.0,7.0;"/><path d="M303.1644,95.042 C305.4462,100.5836 308.2974,107.5078 311.3256,114.8622 C312.8397,118.5393 314.3981,122.324 315.9518,126.0972 C316.146,126.5688 316.3401,127.0403 316.5341,127.5113 C316.5826,127.6291 316.631,127.7468 316.6795,127.8645 " fill="none" id="N1-product.shared" style="stroke: #A80036; stroke-width: 1.0; stroke-dasharray: 7.0,7.0;"/><path d="M136.0625,263 C146.0881,263 156.1137,263 166.1393,263 " fill="none" id="application-&gt;product.service" style="stroke: #A80036; stroke-width: 1.0; stroke-dasharray: 7.0,7.0;"/><polygon fill="#A80036" points="171.3821,263,162.3821,259,166.3821,263,162.3821,267,171.3821,263" style="stroke: #A80036; stroke-width: 1.0;"/></g></svg>