<?xml version="1.0" encoding="UTF-8" standalone="no"?><svg xmlns="http://www.w3.org/2000/svg" xmlns:xlink="http://www.w3.org/1999/xlink" contentScriptType="application/ecmascript" contentStyleType="text/css" height="339px" preserveAspectRatio="none" style="width:751px;height:339px;" version="1.1" viewBox="0 0 751 339" width="751px" zoomAndPan="magnify"><defs><filter height="300%" id="fxaztw1u7mig9" width="300%" x="-1" y="-1"><feGaussianBlur result="blurOut" stdDeviation="2.0"/><feColorMatrix in="blurOut" result="blurOut2" type="matrix" values="0 0 0 0 0 0 0 0 0 0 0 0 0 0 0 0 0 0 .4 0"/><feOffset dx="4.0" dy="4.0" in="blurOut2" result="blurOut3"/><feBlend in="SourceGraphic" in2="blurOut3" mode="normal"/></filter></defs><g><polygon fill="#FFFFFF" filter="url(#fxaztw1u7mig9)" points="14,16,86,16,93,38.2969,729,38.2969,729,327,14,327,14,16" style="stroke: #000000; stroke-width: 1.5;"/><line style="stroke: #000000; stroke-width: 1.5;" x1="14" x2="93" y1="38.2969" y2="38.2969"/><text fill="#000000" font-family="sans-serif" font-size="14" font-weight="bold" lengthAdjust="spacingAndGlyphs" textLength="66" x="18" y="30.9951">dewu.all</text><rect fill="#CCCCCC" filter="url(#fxaztw1u7mig9)" height="222" style="stroke: #000000; stroke-width: 1.5;" width="699" x="22" y="97"/><path d="M109,98 L109,106.2969 L99,116.2969 L22,116.2969 " fill="none" style="stroke: #000000; stroke-width: 1.5;"/><text fill="#000000" font-family="sans-serif" font-size="14" font-weight="bold" lengthAdjust="spacingAndGlyphs" textLength="77" x="25" y="110.9951">shared.all</text><rect fill="#EEEEEE" filter="url(#fxaztw1u7mig9)" height="187" style="stroke: #000000; stroke-width: 1.5;" width="349" x="364" y="124"/><path d="M496,125 L496,133.2969 L486,143.2969 L364,143.2969 " fill="none" style="stroke: #000000; stroke-width: 1.5;"/><text fill="#000000" font-family="sans-serif" font-size="14" font-weight="bold" lengthAdjust="spacingAndGlyphs" textLength="122" x="367" y="137.9951">product.shared</text><rect fill="#EEEEEE" filter="url(#fxaztw1u7mig9)" height="187" style="stroke: #000000; stroke-width: 1.5;" width="315" x="30" y="124"/><path d="M144,125 L144,133.2969 L134,143.2969 L30,143.2969 " fill="none" style="stroke: #000000; stroke-width: 1.5;"/><text fill="#000000" font-family="sans-serif" font-size="14" font-weight="bold" lengthAdjust="spacingAndGlyphs" textLength="104" x="33" y="137.9951">order.shared</text><rect fill="#FFFF00" filter="url(#fxaztw1u7mig9)" height="46.2969" style="stroke: #000000; stroke-width: 1.5;" width="114" x="286" y="43"/><path d="M324,44 L324,48 L317,55 L286,55 " fill="none" style="stroke: #000000; stroke-width: 1.5;"/><text fill="#000000" font-family="sans-serif" font-size="14" lengthAdjust="spacingAndGlyphs" textLength="74" x="301" y="75.9951">application</text><rect fill="#FFFF00" filter="url(#fxaztw1u7mig9)" height="46.2969" style="stroke: #000000; stroke-width: 1.5;" width="147" x="372.5" y="257"/><path d="M421.5,258 L421.5,262 L414.5,269 L372.5,269 " fill="none" style="stroke: #000000; stroke-width: 1.5;"/><text fill="#000000" font-family="sans-serif" font-size="14" lengthAdjust="spacingAndGlyphs" textLength="107" x="387.5" y="289.9951">product.service</text><rect fill="#FFFF00" filter="url(#fxaztw1u7mig9)" height="46.2969" style="stroke: #000000; stroke-width: 1.5;" width="179" x="525.5" y="151"/><path d="M585.1667,152 L585.1667,156 L578.1667,163 L525.5,163 " fill="none" style="stroke: #000000; stroke-width: 1.5;"/><text fill="#000000" font-family="sans-serif" font-size="14" lengthAdjust="spacingAndGlyphs" textLength="139" x="540.5" y="183.9951">product.service.impl</text><rect fill="#FFFF00" filter="url(#fxaztw1u7mig9)" height="46.2969" style="stroke: #000000; stroke-width: 1.5;" width="118" x="372" y="151"/><path d="M411.3333,152 L411.3333,156 L404.3333,163 L372,163 " fill="none" style="stroke: #000000; stroke-width: 1.5;"/><text fill="#000000" font-family="sans-serif" font-size="14" lengthAdjust="spacingAndGlyphs" textLength="78" x="387" y="183.9951">product.api</text><rect fill="#FFFF00" filter="url(#fxaztw1u7mig9)" height="46.2969" style="stroke: #000000; stroke-width: 1.5;" width="130" x="191" y="257"/><path d="M234.3333,258 L234.3333,262 L227.3333,269 L191,269 " fill="none" style="stroke: #000000; stroke-width: 1.5;"/><text fill="#000000" font-family="sans-serif" font-size="14" lengthAdjust="spacingAndGlyphs" textLength="90" x="206" y="289.9951">order.service</text><rect fill="#FFFF00" filter="url(#fxaztw1u7mig9)" height="46.2969" style="stroke: #000000; stroke-width: 1.5;" width="162" x="175" y="151"/><path d="M229,152 L229,156 L222,163 L175,163 " fill="none" style="stroke: #000000; stroke-width: 1.5;"/><text fill="#000000" font-family="sans-serif" font-size="14" lengthAdjust="spacingAndGlyphs" textLength="122" x="190" y="183.9951">order.service.impl</text><rect fill="#FFFF00" filter="url(#fxaztw1u7mig9)" height="46.2969" style="stroke: #000000; stroke-width: 1.5;" width="101" x="38.5" y="151"/><path d="M72.1667,152 L72.1667,156 L65.1667,163 L38.5,163 " fill="none" style="stroke: #000000; stroke-width: 1.5;"/><text fill="#000000" font-family="sans-serif" font-size="14" lengthAdjust="spacingAndGlyphs" textLength="61" x="53.5" y="183.9951">order.api</text><path d="M434.2548,197.0004 C436.5193,213.003 439.5537,234.4461 441.9709,251.528 " fill="none" id="product.api-&gt;product.service" style="stroke: #A80036; stroke-width: 1.0; stroke-dasharray: 7.0,7.0;"/><polygon fill="#A80036" points="442.6998,256.6784,445.3991,247.2067,441.9991,251.7277,437.478,248.3278,442.6998,256.6784" style="stroke: #A80036; stroke-width: 1.0;"/><path d="M578.3295,197.0004 C551.5142,213.8195 515.117,236.6485 487.2815,254.1075 " fill="none" id="product.service.impl-&gt;product.service" style="stroke: #A80036; stroke-width: 1.0; stroke-dasharray: 7.0,7.0;"/><polygon fill="#A80036" points="482.8903,256.8617,492.64,255.4679,487.126,254.2049,488.3891,248.6908,482.8903,256.8617" style="stroke: #A80036; stroke-width: 1.0;"/><path d="M321.3125,280 C336.6283,280 351.944,280 367.2598,280 " fill="none" id="order.service-&gt;product.service" style="stroke: #A80036; stroke-width: 1.0; stroke-dasharray: 7.0,7.0;"/><polygon fill="#A80036" points="372.4539,280,363.4539,276,367.4539,280,363.4539,284,372.4539,280" style="stroke: #A80036; stroke-width: 1.0;"/><path d="M256,197.0004 C256,213.003 256,234.4461 256,251.528 " fill="none" id="order.service.impl-&gt;order.service" style="stroke: #A80036; stroke-width: 1.0; stroke-dasharray: 7.0,7.0;"/><polygon fill="#A80036" points="256,256.6784,260,247.6784,256,251.6784,252,247.6784,256,256.6784" style="stroke: #A80036; stroke-width: 1.0;"/><path d="M125.2365,197.0004 C151.7345,213.8195 187.701,236.6485 215.2071,254.1075 " fill="none" id="order.api-&gt;order.service" style="stroke: #A80036; stroke-width: 1.0; stroke-dasharray: 7.0,7.0;"/><polygon fill="#A80036" points="219.5462,256.8617,214.0911,248.6616,215.3248,254.1823,209.804,255.4159,219.5462,256.8617" style="stroke: #A80036; stroke-width: 1.0;"/><path d="M400.163,70.5294 C432.7784,74.6193 473.8402,82.366 508,97 C536.7947,109.3356 565.3863,130.4923 585.7604,147.511 " fill="none" id="application-&gt;product.service.impl" style="stroke: #A80036; stroke-width: 1.0; stroke-dasharray: 7.0,7.0;"/><polygon fill="#A80036" points="589.7233,150.8557,585.4256,141.994,585.9024,147.6307,580.2656,148.1075,589.7233,150.8557" style="stroke: #A80036; stroke-width: 1.0;"/><path d="M361.8782,89.1687 C375.682,106.1097 394.4466,129.139 408.9415,146.9282 " fill="none" id="application-&gt;product.api" style="stroke: #A80036; stroke-width: 1.0; stroke-dasharray: 7.0,7.0;"/><polygon fill="#A80036" points="412.153,150.8696,409.5689,141.3658,408.9947,146.9934,403.367,146.4191,412.153,150.8696" style="stroke: #A80036; stroke-width: 1.0;"/><path d="M324.3363,89.1687 C310.6894,106.1097 292.138,129.139 277.8078,146.9282 " fill="none" id="application-&gt;order.service.impl" style="stroke: #A80036; stroke-width: 1.0; stroke-dasharray: 7.0,7.0;"/><polygon fill="#A80036" points="274.6328,150.8696,283.3939,146.3703,277.7695,146.9759,277.1639,141.3515,274.6328,150.8696" style="stroke: #A80036; stroke-width: 1.0;"/><path d="M285.5772,71.4354 C239.6345,76.5478 179.4696,85.1851 158,97 C136.6887,108.7278 118.6048,129.6161 106.3033,146.6802 " fill="none" id="application-&gt;order.api" style="stroke: #A80036; stroke-width: 1.0; stroke-dasharray: 7.0,7.0;"/><polygon fill="#A80036" points="103.302,150.9283,111.7622,145.886,106.1872,146.8447,105.2285,141.2697,103.302,150.9283" style="stroke: #A80036; stroke-width: 1.0;"/></g></svg>